<?xml version="1.0" standalone="no"?>
<svg xmlns="http://www.w3.org/2000/svg" xmlns:xlink="http://www.w3.org/1999/xlink" width="686pt" height="566pt" viewBox="0.00 0.00 686.00 566.40">
<g id="graph0" class="graph" transform="translate(4,562.4000244140625) scale(1)" data-name="DiskGraph">

<polygon fill="white" stroke="none" points="-4,4 -4,-562.4 682,-562.4 682,4 -4,4" style=""/>
<g id="clust1" class="cluster" data-name="cluster_graph">

<polygon fill="none" stroke="white" points="8,-8 8,-550.4 670,-550.4 670,-8 8,-8" style=""/>
</g>
<!-- &#45;5799852448562302975.1 -->
<g id="node1" class="node" pointer-events="visible" data-name="-5799852448562302975.1">

<polygon fill="lightgrey" stroke="black" points="250.16,-542.4 71.84,-542.4 71.84,-450.4 250.16,-450.4 250.16,-542.4" style=""/>
<text text-anchor="middle" x="161" y="-525.8" font-family="Times,serif" font-size="14.00" style="">/\ refunded = FALSE</text>
<text text-anchor="middle" x="161" y="-509" font-family="Times,serif" font-size="14.00" style="">/\ revealed = FALSE</text>
<text text-anchor="middle" x="161" y="-492.2" font-family="Times,serif" font-size="14.00" style="">/\ owner = a</text>
<text text-anchor="middle" x="161" y="-475.4" font-family="Times,serif" font-size="14.00" style="">/\ locked = FALSE</text>
<text text-anchor="middle" x="161" y="-458.6" font-family="Times,serif" font-size="14.00" style="">#-5799852448562302975.1#</text>
</g>
<!-- &#45;5799852448562302975.1&#45;&gt;&#45;5799852448562302975.1 -->
<g id="edge1" class="edge" data-name="-5799852448562302975.1-&gt;-5799852448562302975.1">

<path fill="none" stroke="black" d="M250.44,-508.96C265.04,-507.16 275.08,-502.98 275.08,-496.4 275.08,-491.67 269.9,-488.18 261.56,-485.92" style=""/>
<polygon fill="black" stroke="black" points="262.4,-482.52 251.93,-484.12 261.11,-489.4 262.4,-482.52" style=""/>
<text text-anchor="middle" x="283.63" y="-492.2" font-family="Times,serif" font-size="14.00" style="">[tt]</text>
</g>
<!-- 5429848341999068463.0 -->
<g id="node2" class="node" pointer-events="visible" data-name="5429848341999068463.0">

<path fill="none" stroke="black" d="M177.5,-252.8C177.5,-252.8 28.5,-252.8 28.5,-252.8 22.5,-252.8 16.5,-246.8 16.5,-240.8 16.5,-240.8 16.5,-172.8 16.5,-172.8 16.5,-166.8 22.5,-160.8 28.5,-160.8 28.5,-160.8 177.5,-160.8 177.5,-160.8 183.5,-160.8 189.5,-166.8 189.5,-172.8 189.5,-172.8 189.5,-240.8 189.5,-240.8 189.5,-246.8 183.5,-252.8 177.5,-252.8" style=""/>
<text text-anchor="middle" x="103" y="-236.2" font-family="Times,serif" font-size="14.00" style="">/\ refunded = FALSE</text>
<text text-anchor="middle" x="103" y="-219.4" font-family="Times,serif" font-size="14.00" style="">/\ revealed = FALSE</text>
<text text-anchor="middle" x="103" y="-202.6" font-family="Times,serif" font-size="14.00" style="">/\ owner = c</text>
<text text-anchor="middle" x="103" y="-185.8" font-family="Times,serif" font-size="14.00" style="">/\ locked = TRUE</text>
<text text-anchor="middle" x="103" y="-169" font-family="Times,serif" font-size="14.00" style="">#5429848341999068463.0#</text>
</g>
<!-- &#45;5799852448562302975.1&#45;&gt;5429848341999068463.0 -->
<g id="edge2" class="edge" data-name="-5799852448562302975.1-&gt;5429848341999068463.0">

<path fill="none" stroke="black" d="M151.87,-450.15C141.75,-399.93 125.39,-318.83 114.42,-264.44" style=""/>
<polygon fill="black" stroke="black" points="117.88,-263.86 112.47,-254.75 111.01,-265.24 117.88,-263.86" style=""/>
<text text-anchor="middle" x="148.55" y="-347.4" font-family="Times,serif" font-size="14.00" style="">[tt]</text>
</g>
<!-- 5429848341999068463.1 -->
<g id="node3" class="node" pointer-events="visible" data-name="5429848341999068463.1">

<path fill="none" stroke="black" d="M360.5,-397.6C360.5,-397.6 211.5,-397.6 211.5,-397.6 205.5,-397.6 199.5,-391.6 199.5,-385.6 199.5,-385.6 199.5,-317.6 199.5,-317.6 199.5,-311.6 205.5,-305.6 211.5,-305.6 211.5,-305.6 360.5,-305.6 360.5,-305.6 366.5,-305.6 372.5,-311.6 372.5,-317.6 372.5,-317.6 372.5,-385.6 372.5,-385.6 372.5,-391.6 366.5,-397.6 360.5,-397.6" style=""/>
<text text-anchor="middle" x="286" y="-381" font-family="Times,serif" font-size="14.00" style="">/\ refunded = FALSE</text>
<text text-anchor="middle" x="286" y="-364.2" font-family="Times,serif" font-size="14.00" style="">/\ revealed = FALSE</text>
<text text-anchor="middle" x="286" y="-347.4" font-family="Times,serif" font-size="14.00" style="">/\ owner = c</text>
<text text-anchor="middle" x="286" y="-330.6" font-family="Times,serif" font-size="14.00" style="">/\ locked = TRUE</text>
<text text-anchor="middle" x="286" y="-313.8" font-family="Times,serif" font-size="14.00" style="">#5429848341999068463.1#</text>
</g>
<!-- &#45;5799852448562302975.1&#45;&gt;5429848341999068463.1 -->
<g id="edge3" class="edge" data-name="-5799852448562302975.1-&gt;5429848341999068463.1">

<path fill="none" stroke="black" d="M200.55,-450.22C212.75,-436.28 226.3,-420.8 238.95,-406.35" style=""/>
<polygon fill="black" stroke="black" points="241.33,-408.95 245.28,-399.12 236.06,-404.34 241.33,-408.95" style=""/>
<text text-anchor="middle" x="235.55" y="-419.8" font-family="Times,serif" font-size="14.00" style="">[tt]</text>
</g>
<!-- 5429848341999068463.2 -->
<g id="node4" class="node" pointer-events="visible" data-name="5429848341999068463.2">

<path fill="none" stroke="black" d="M177.5,-108C177.5,-108 28.5,-108 28.5,-108 22.5,-108 16.5,-102 16.5,-96 16.5,-96 16.5,-28 16.5,-28 16.5,-22 22.5,-16 28.5,-16 28.5,-16 177.5,-16 177.5,-16 183.5,-16 189.5,-22 189.5,-28 189.5,-28 189.5,-96 189.5,-96 189.5,-102 183.5,-108 177.5,-108" style=""/>
<text text-anchor="middle" x="103" y="-91.4" font-family="Times,serif" font-size="14.00" style="">/\ refunded = FALSE</text>
<text text-anchor="middle" x="103" y="-74.6" font-family="Times,serif" font-size="14.00" style="">/\ revealed = FALSE</text>
<text text-anchor="middle" x="103" y="-57.8" font-family="Times,serif" font-size="14.00" style="">/\ owner = c</text>
<text text-anchor="middle" x="103" y="-41" font-family="Times,serif" font-size="14.00" style="">/\ locked = TRUE</text>
<text text-anchor="middle" x="103" y="-24.2" font-family="Times,serif" font-size="14.00" style="">#5429848341999068463.2#</text>
</g>
<!-- 5429848341999068463.0&#45;&gt;5429848341999068463.2 -->
<g id="edge4" class="edge" data-name="5429848341999068463.0-&gt;5429848341999068463.2">

<path fill="none" stroke="black" d="M103,-160.62C103,-147.59 103,-133.22 103,-119.6" style=""/>
<polygon fill="black" stroke="black" points="106.5,-119.89 103,-109.89 99.5,-119.89 106.5,-119.89" style=""/>
<text text-anchor="middle" x="112.32" y="-130.2" font-family="Times,serif" font-size="14.00" style="">[ff]</text>
</g>
<!-- 5429848341999068463.1&#45;&gt;5429848341999068463.0 -->
<g id="edge5" class="edge" data-name="5429848341999068463.1-&gt;5429848341999068463.0">

<path fill="none" stroke="black" d="M227.85,-305.22C209.41,-290.84 188.89,-274.82 169.9,-260" style=""/>
<polygon fill="black" stroke="black" points="172.23,-257.38 162.2,-253.99 167.93,-262.9 172.23,-257.38" style=""/>
<text text-anchor="middle" x="208.32" y="-275" font-family="Times,serif" font-size="14.00" style="">[ff]</text>
</g>
<!-- 5429848341999068463.1&#45;&gt;5429848341999068463.1 -->
<g id="edge6" class="edge" data-name="5429848341999068463.1-&gt;5429848341999068463.1">

<path fill="none" stroke="black" d="M372.68,-364.27C387.49,-362.54 397.75,-358.32 397.75,-351.6 397.75,-346.77 392.45,-343.23 383.97,-340.98" style=""/>
<polygon fill="black" stroke="black" points="384.64,-337.54 374.17,-339.2 383.38,-344.43 384.64,-337.54" style=""/>
<text text-anchor="middle" x="407.07" y="-347.4" font-family="Times,serif" font-size="14.00" style="">[ff]</text>
</g>
<!-- &#45;1925525137722108395.1 -->
<g id="node5" class="node" pointer-events="visible" data-name="-1925525137722108395.1">

<path fill="none" stroke="black" d="M381.16,-252.8C381.16,-252.8 226.84,-252.8 226.84,-252.8 220.84,-252.8 214.84,-246.8 214.84,-240.8 214.84,-240.8 214.84,-172.8 214.84,-172.8 214.84,-166.8 220.84,-160.8 226.84,-160.8 226.84,-160.8 381.16,-160.8 381.16,-160.8 387.16,-160.8 393.16,-166.8 393.16,-172.8 393.16,-172.8 393.16,-240.8 393.16,-240.8 393.16,-246.8 387.16,-252.8 381.16,-252.8" style=""/>
<text text-anchor="middle" x="304" y="-236.2" font-family="Times,serif" font-size="14.00" style="">/\ refunded = FALSE</text>
<text text-anchor="middle" x="304" y="-219.4" font-family="Times,serif" font-size="14.00" style="">/\ revealed = TRUE</text>
<text text-anchor="middle" x="304" y="-202.6" font-family="Times,serif" font-size="14.00" style="">/\ owner = b</text>
<text text-anchor="middle" x="304" y="-185.8" font-family="Times,serif" font-size="14.00" style="">/\ locked = FALSE</text>
<text text-anchor="middle" x="304" y="-169" font-family="Times,serif" font-size="14.00" style="">#-1925525137722108395.1#</text>
</g>
<!-- 5429848341999068463.1&#45;&gt;&#45;1925525137722108395.1 -->
<g id="edge7" class="edge" data-name="5429848341999068463.1-&gt;-1925525137722108395.1">

<path fill="none" stroke="black" d="M291.7,-305.42C293.34,-292.39 295.15,-278.02 296.87,-264.4" style=""/>
<polygon fill="black" stroke="black" points="300.31,-265.04 298.09,-254.68 293.37,-264.16 300.31,-265.04" style=""/>
<text text-anchor="middle" x="303.94" y="-275" font-family="Times,serif" font-size="14.00" style="">[ft]</text>
</g>
<!-- 7409596737802469535.1 -->
<g id="node6" class="node" pointer-events="visible" data-name="7409596737802469535.1">

<path fill="none" stroke="black" d="M614.5,-252.8C614.5,-252.8 465.5,-252.8 465.5,-252.8 459.5,-252.8 453.5,-246.8 453.5,-240.8 453.5,-240.8 453.5,-172.8 453.5,-172.8 453.5,-166.8 459.5,-160.8 465.5,-160.8 465.5,-160.8 614.5,-160.8 614.5,-160.8 620.5,-160.8 626.5,-166.8 626.5,-172.8 626.5,-172.8 626.5,-240.8 626.5,-240.8 626.5,-246.8 620.5,-252.8 614.5,-252.8" style=""/>
<text text-anchor="middle" x="540" y="-236.2" font-family="Times,serif" font-size="14.00" style="">/\ refunded = TRUE</text>
<text text-anchor="middle" x="540" y="-219.4" font-family="Times,serif" font-size="14.00" style="">/\ revealed = FALSE</text>
<text text-anchor="middle" x="540" y="-202.6" font-family="Times,serif" font-size="14.00" style="">/\ owner = a</text>
<text text-anchor="middle" x="540" y="-185.8" font-family="Times,serif" font-size="14.00" style="">/\ locked = FALSE</text>
<text text-anchor="middle" x="540" y="-169" font-family="Times,serif" font-size="14.00" style="">#7409596737802469535.1#</text>
</g>
<!-- 5429848341999068463.1&#45;&gt;7409596737802469535.1 -->
<g id="edge8" class="edge" data-name="5429848341999068463.1-&gt;7409596737802469535.1">

<path fill="none" stroke="black" d="M366.72,-305.22C393.11,-290.38 422.59,-273.81 449.65,-258.6" style=""/>
<polygon fill="black" stroke="black" points="451.17,-261.75 458.17,-253.8 447.74,-255.65 451.17,-261.75" style=""/>
<text text-anchor="middle" x="428.94" y="-275" font-family="Times,serif" font-size="14.00" style="">[tf]</text>
</g>
<!-- &#45;1925525137722108395.1&#45;&gt;&#45;1925525137722108395.1 -->
<g id="edge9" class="edge" data-name="-1925525137722108395.1-&gt;-1925525137722108395.1">

<path fill="none" stroke="black" d="M393.44,-219.36C408.04,-217.56 418.08,-213.38 418.08,-206.8 418.08,-202.07 412.9,-198.58 404.56,-196.32" style=""/>
<polygon fill="black" stroke="black" points="405.4,-192.92 394.93,-194.52 404.11,-199.8 405.4,-192.92" style=""/>
<text text-anchor="middle" x="426.63" y="-202.6" font-family="Times,serif" font-size="14.00" style="">[tt]</text>
</g>
<!-- 7409596737802469535.1&#45;&gt;7409596737802469535.1 -->
<g id="edge10" class="edge" data-name="7409596737802469535.1-&gt;7409596737802469535.1">

<path fill="none" stroke="black" d="M626.68,-219.47C641.49,-217.74 651.75,-213.52 651.75,-206.8 651.75,-201.97 646.45,-198.43 637.97,-196.18" style=""/>
<polygon fill="black" stroke="black" points="638.64,-192.74 628.17,-194.4 637.38,-199.63 638.64,-192.74" style=""/>
<text text-anchor="middle" x="660.3" y="-202.6" font-family="Times,serif" font-size="14.00" style="">[tt]</text>
</g>
</g>
</svg>